<svg xmlns="http://www.w3.org/2000/svg" viewBox="0 0 24 24" fill="none" stroke="#10b981" stroke-width="2" stroke-linecap="round" stroke-linejoin="round">
  <path d="M12 5a3 3 0 1 0-5.997.125 4 4 0 0 0-2.526 5.77 4 4 0 0 0 .556 6.588A4 4 0 1 0 12 18Z"/>
  <path d="M9 13a4.5 4.5 0 0 0 3-4"/>
  <path d="M6.003 5.125A3 3 0 0 0 6.4 17h.067"/>
  <path d="M16.494 13.921A3 3 0 0 1 12 18"/>
  <path d="M15 10h5"/>
  <path d="M14 6h6"/>
  <path d="M17 14h3"/>
  <path d="M17 14V6"/>
  <path d="M22 6v8"/>
</svg>
